<svg width="68" height="71" viewBox="0 0 68 71" fill="none" xmlns="http://www.w3.org/2000/svg">
<g clip-path="url(#clip0_90_924)">
<ellipse cx="36.3888" cy="35.2283" rx="29.7638" ry="30.7283" fill="#FDD32A"/>
<path d="M39.9331 3.67676C39.3941 3.53209 39.0149 3.43759 38.6392 3.32909C37.6137 3.03159 37.0946 2.39926 37.2299 1.62692C37.3804 0.77409 38.1002 0.36109 39.2587 0.544257C40.2026 0.69359 41.1371 0.90709 42.0692 1.12059C44.6044 1.70159 47.0859 2.45059 49.4846 3.47259C55.0729 5.85376 59.4794 9.61159 62.6072 14.8149C66.0606 20.5596 68.1419 26.7208 67.7032 33.5131C67.3124 39.5739 65.4784 45.2323 62.3552 50.4321C58.2649 57.2408 52.9612 62.9154 45.8434 66.5776C35.6327 71.8311 25.2949 71.9128 15.2511 66.1926C7.18355 61.5971 2.29405 54.4606 0.79372 45.3221C-1.17095 33.3544 2.08639 22.8241 10.5891 14.0939C14.9349 9.63259 20.4042 7.06826 26.3776 5.52242C30.3209 4.50276 34.3366 3.98709 38.4059 3.87509C38.7699 3.86459 39.1351 3.85876 39.4991 3.83892C39.5772 3.83542 39.6519 3.78409 39.9319 3.67676H39.9331ZM40.8535 6.80109C35.2314 6.74159 30.7677 7.31676 26.3904 8.51842C20.5034 10.1354 15.3059 12.9424 11.2377 17.5811C5.87339 23.6968 3.25305 30.9068 3.14222 38.9871C3.01505 48.2656 6.35289 56.1441 13.8347 61.7324C23.5531 68.9914 34.0624 69.3391 44.7339 63.8884C50.7107 60.8353 55.2281 56.0601 58.9066 50.5044C62.2642 45.4341 64.3292 39.8551 64.7691 33.7814C65.3221 26.1363 62.6807 19.4501 58.1156 13.4569C56.1287 10.8494 53.5912 8.84742 50.7131 7.27476C50.1262 6.95392 49.6269 6.66576 49.0564 7.34242C48.7531 7.70292 48.2351 7.72392 47.7731 7.58626C45.1562 6.81159 42.4612 6.83959 40.8547 6.80109H40.8535Z" fill="black"/>
<path d="M35.2489 59.6267C32.8199 59.5976 30.4376 59.2441 28.1194 58.5161C25.2389 57.6119 22.7072 56.1151 20.6574 53.8844C18.0662 51.0646 15.9837 47.9402 15.1706 44.1182C15.0387 43.4964 14.9582 42.8582 14.9232 42.2236C14.8684 41.2296 15.3129 40.6112 16.0911 40.4922C16.9322 40.3627 17.6544 40.8889 17.7431 41.9062C18.0324 45.2266 19.5992 47.9531 21.5616 50.5256C24.5284 54.4152 28.5896 56.2352 33.3274 56.6132C41.0729 57.2304 47.4021 54.3686 52.3907 48.4851C53.9541 46.6406 55.3074 44.6362 56.3014 42.4137C56.4519 42.0777 56.6047 41.7452 56.8999 41.5142C57.3234 41.1841 57.7912 41.0744 58.3081 41.2879C58.8202 41.5002 59.0909 41.8899 59.1481 42.4347C59.2087 43.0041 59.0127 43.5197 58.7619 44.0062C54.6657 51.9652 48.6294 57.4906 39.5994 59.2382C38.1656 59.5159 36.7131 59.6442 35.2501 59.6279L35.2489 59.6267Z" fill="black"/>
<path d="M21.9535 25.1587C26.8127 25.1867 31.9075 28.8652 33.4335 33.4537C33.5187 33.7104 33.6015 33.9775 33.6167 34.2447C33.6575 34.961 33.2713 35.5175 32.6332 35.7042C31.9775 35.8944 31.4502 35.654 31.0932 35.1197C30.8435 34.7464 30.707 34.3007 30.5028 33.8947C28.8333 30.5615 26.1838 28.5735 22.4668 28.0695C22.1098 28.0217 21.7318 27.9972 21.3795 28.0555C17.9087 28.6319 15.0375 30.2069 13.004 33.1504C12.8745 33.337 12.7742 33.547 12.6272 33.7174C12.1687 34.2505 11.478 34.4115 10.9098 34.1397C10.2997 33.8469 9.98349 33.1235 10.2005 32.4014C10.3043 32.0584 10.4805 31.7294 10.6672 31.419C12.7532 27.9295 18.6658 24.8892 21.9523 25.1599L21.9535 25.1587Z" fill="black"/>
<path d="M48.9501 25.3559C51.9717 25.3839 54.2269 26.4654 55.8847 28.7089C56.6991 29.8114 57.3792 30.9921 57.7526 32.3267C57.8634 32.7211 57.9812 33.1142 57.8797 33.5331C57.7246 34.1724 57.3361 34.5936 56.6874 34.6916C56.0889 34.7826 55.6222 34.4944 55.3131 33.9916C55.1731 33.7629 55.0809 33.4957 55.0121 33.2332C54.7869 32.3839 54.3447 31.6431 53.8932 30.9057C51.6229 27.2004 47.0752 27.8117 45.0511 29.8849C43.7234 31.2441 42.7387 32.8016 42.1519 34.6087C42.0539 34.9109 41.9839 35.2282 41.8404 35.5082C41.5044 36.1674 40.8907 36.4626 40.2736 36.3062C39.6541 36.1499 39.1851 35.5946 39.1967 34.8957C39.2049 34.4501 39.3122 33.9916 39.4534 33.5646C40.1767 31.3642 41.3679 29.4427 43.0246 27.8269C44.7302 26.1632 46.7917 25.3571 48.9489 25.3547L48.9501 25.3559Z" fill="black"/>
</g>
<defs>
<clipPath id="clip0_90_924">
<rect width="67.5208" height="70" fill="white" transform="translate(0.239502 0.5)"/>
</clipPath>
</defs>
</svg>
