<svg width="234" height="175" viewBox="0 0 234 175" fill="none" xmlns="http://www.w3.org/2000/svg">
<path d="M93.5521 56.1402C93.5521 45.6279 98.9762 36.5502 106.764 32.4362H106.765C108.525 31.5055 110.407 30.8292 112.374 30.4475C113.597 30.2098 114.852 30.0865 116.132 30.0865C128.583 30.0865 138.713 41.774 138.713 56.1402V71.4679H152.104V56.1402C152.104 50.9042 151.185 45.8171 149.373 41.0207C147.607 36.3459 145.069 32.1388 141.83 28.5153C138.542 24.8382 134.695 21.9423 130.395 19.9096C127.602 18.5894 124.698 17.6721 121.717 17.1649C121.717 17.1649 121.715 17.1649 121.715 17.1649C119.881 16.853 118.018 16.6962 116.132 16.6962C114.577 16.6962 113.036 16.8027 111.515 17.0153H111.513C108.192 17.4796 104.963 18.4477 101.87 19.9101C97.5695 21.9428 93.7222 24.8387 90.4346 28.5158C87.1956 32.1393 84.6579 36.3465 82.8919 41.0212C81.0801 45.8176 80.1611 50.9047 80.1611 56.1408V71.4685H93.5515V56.1408L93.5521 56.1402Z" fill="#FFC843"/>
<path d="M172.358 76.4602C171.011 74.3633 168.658 72.9745 165.981 72.9745H66.2848C62.1016 72.9745 58.7102 76.3653 58.7102 80.5485V154.684C58.7102 158.791 61.9788 162.135 66.0566 162.256C66.1324 162.258 66.2083 162.259 66.2848 162.259H165.981C169.329 162.259 172.171 160.086 173.171 157.073C173.337 156.573 173.452 156.051 173.511 155.511C173.541 155.239 173.556 154.963 173.556 154.684V80.5485C173.556 79.0425 173.116 77.6392 172.358 76.4602ZM133.629 117.085C133.601 117.126 133.573 117.166 133.545 117.206C132.382 118.867 130.99 120.352 129.407 121.621C128.902 122.026 128.379 122.407 127.842 122.762C127.421 123.041 126.991 123.305 126.551 123.552C126.11 123.801 125.659 124.035 125.201 124.251C125.158 124.271 125.116 124.291 125.073 124.311L126.691 139.704C126.852 141.232 126.688 142.739 126.204 144.181C125.74 145.568 125.006 146.825 124.022 147.918C123.731 148.24 123.425 148.543 123.102 148.825C122.826 149.065 122.539 149.291 122.24 149.502C121.706 149.878 121.137 150.204 120.535 150.479C120.497 150.496 120.459 150.513 120.421 150.53C120.293 150.587 120.163 150.641 120.033 150.692C118.794 151.182 117.485 151.43 116.133 151.43C114.597 151.43 113.116 151.11 111.731 150.479C110.4 149.872 109.227 149.01 108.244 147.918C107.26 146.825 106.526 145.568 106.061 144.181C105.578 142.739 105.414 141.232 105.575 139.704L107.052 125.648L107.193 124.311C106.832 124.143 106.475 123.965 106.124 123.777C104.972 123.161 103.877 122.438 102.851 121.615C101.227 120.312 99.8053 118.782 98.6258 117.069C96.1757 113.509 94.8856 109.336 94.894 104.999C94.8996 102.154 95.4709 99.3858 96.5919 96.7706C97.6716 94.2519 99.2111 91.9854 101.168 90.0347C102.328 88.8785 103.599 87.8692 104.967 87.0149C105.905 86.429 106.89 85.9168 107.916 85.4799C109.77 84.6909 111.699 84.1781 113.676 83.9466C114.366 83.8651 115.062 83.8188 115.762 83.8065C115.762 83.8065 115.764 83.8065 115.765 83.8065C115.888 83.8037 116.013 83.8026 116.137 83.8026H116.141C116.21 83.8026 116.277 83.8026 116.346 83.8037C119.19 83.8316 121.946 84.413 124.539 85.5318C127.045 86.6126 129.293 88.147 131.221 90.0933C131.432 90.3059 131.637 90.5218 131.838 90.7422H131.838C133.475 92.5383 134.78 94.5789 135.722 96.8203C136.817 99.426 137.372 102.192 137.372 105.042C137.372 109.37 136.077 113.535 133.629 117.085Z" fill="#FFC843"/>
<path d="M173.452 73.1419C173.297 71.9267 172.908 70.7772 172.296 69.726C171.704 68.7116 170.932 67.8311 169.999 67.1102C169.067 66.3893 168.021 65.8631 166.889 65.5467C165.718 65.2186 164.508 65.1316 163.292 65.2867L152.104 66.7185V68.2373L163.484 66.7815C167.633 66.2503 171.428 69.1836 171.958 73.3333L172.358 76.4602C173.116 77.6392 173.556 79.0426 173.556 80.5485V85.8192L181.367 146.869C181.898 151.019 178.965 154.813 174.815 155.344L173.511 155.511L120.769 162.259L75.9245 167.997C72.0521 168.492 68.4894 165.97 67.6 162.259H66.2849C66.2084 162.259 66.1325 162.258 66.0566 162.256C66.2514 163.243 66.6057 164.181 67.1129 165.052C67.7038 166.067 68.4766 166.946 69.409 167.668C70.3414 168.389 71.3876 168.914 72.5186 169.231C73.6903 169.559 74.9006 169.647 76.1159 169.491L132.639 162.259L173.171 157.073L175.006 156.838C176.222 156.682 177.371 156.294 178.422 155.681C179.437 155.09 180.317 154.318 181.038 153.385C181.759 152.452 182.285 151.406 182.602 150.275C182.93 149.103 183.017 147.893 182.862 146.678L173.452 73.1419Z" fill="#404E85"/>
<path d="M77.6112 77.7687L78.3583 77.6727L91.6404 75.9737L92.3875 75.8777L93.1347 75.7823L115.078 72.9745L134.942 70.433L136.437 70.2421L138.714 69.9509V68.432L136.245 68.7479L134.3 53.5441C132.664 40.7619 123.218 31.1513 112.375 30.4477C111.131 30.3673 109.867 30.4036 108.596 30.5665C96.2454 32.1467 87.681 45.026 89.5045 59.2756L91.0646 71.468L91.2571 72.9745L91.4496 74.4794L78.1675 76.1785L77.7573 72.9745L76.2223 60.9752C75.5578 55.7816 75.8234 50.6191 77.0119 45.6314C78.1702 40.7703 80.1539 36.2752 82.9069 32.27C85.7007 28.2051 89.1496 24.8444 93.157 22.2822C97.3614 19.5944 101.984 17.9132 106.897 17.2844C108.439 17.0869 109.979 16.997 111.514 17.0149H111.516C113.037 16.8023 114.578 16.6957 116.133 16.6957C118.019 16.6957 119.882 16.8525 121.716 17.1644C116.82 15.6043 111.771 15.1417 106.705 15.7901C101.57 16.4469 96.7387 18.2045 92.3457 21.0128C88.1675 23.6844 84.5742 27.1846 81.6654 31.4163C78.8069 35.5749 76.748 40.2402 75.5466 45.2821C74.3157 50.4473 74.0401 55.7916 74.7281 61.1666L76.2385 72.9745L76.6732 76.3698L64.4027 77.94C63.1874 78.0951 62.038 78.4846 60.9867 79.0967C60.1258 79.5983 59.3619 80.2305 58.7107 80.9799C58.593 81.1138 58.4803 81.2516 58.3709 81.3928C57.65 82.3257 57.1239 83.3719 56.8075 84.5024C56.4794 85.6741 56.3918 86.8844 56.5475 88.0997L58.7107 105.008V93.1377L58.0417 87.9088C57.8509 86.4151 58.1087 84.9677 58.7107 83.7017C59.7804 81.4502 61.9381 79.7741 64.5941 79.4343L76.8646 77.8641L77.6117 77.7687H77.6112ZM92.5828 71.468L90.9982 59.0848C89.3834 46.4594 96.3436 34.9857 106.764 32.4363H106.765C107.426 32.2745 108.1 32.1489 108.787 32.0608C120.313 30.586 131.088 40.3094 132.806 53.7354L134.751 68.9387L103.209 72.9745L92.9438 74.288L92.7759 72.9745L92.5828 71.468Z" fill="#404E85"/>
<path d="M129.499 118.152C130.769 116.506 131.79 114.688 132.533 112.749C134.076 108.721 134.352 104.369 133.332 100.162C132.66 97.3933 131.469 94.8361 129.791 92.5612C128.17 90.365 126.165 88.5225 123.831 87.0852C121.498 85.6484 118.952 84.6864 116.262 84.2266C115.403 84.0799 114.539 83.9862 113.676 83.9465C111.743 83.8562 109.807 84.0341 107.893 84.4789C107.826 84.4939 107.759 84.5101 107.693 84.5263H107.689C104.93 85.1964 102.374 86.3966 100.095 88.0946C97.8971 89.7317 96.0524 91.756 94.6111 94.1118C93.1687 96.4687 92.2068 99.0343 91.7515 101.737C91.2783 104.542 91.376 107.367 92.0405 110.133C93.0549 114.35 95.2924 118.102 98.5125 120.983C100.063 122.371 101.805 123.522 103.691 124.406C104.778 124.915 105.902 125.33 107.052 125.648C107.545 125.784 108.043 125.903 108.546 126.002L110.601 141.343C110.805 142.866 111.319 144.291 112.129 145.58C112.907 146.818 113.917 147.866 115.131 148.696C116.344 149.526 117.687 150.087 119.124 150.363C119.555 150.446 119.987 150.502 120.421 150.53C120.459 150.513 120.497 150.496 120.535 150.479C121.137 150.204 121.706 149.878 122.24 149.502C122.539 149.291 122.826 149.065 123.102 148.825C122.434 148.974 121.767 149.045 121.111 149.045C116.666 149.045 112.714 145.764 112.094 141.143L109.891 124.705C108.6 124.52 107.339 124.207 106.124 123.777C100.038 121.623 95.1284 116.53 93.5058 109.781C91.2359 100.341 96.3141 90.7198 104.967 87.0149C105.949 86.5942 106.976 86.2499 108.044 85.991C108.108 85.9754 108.17 85.9608 108.233 85.9463C118.76 83.5024 129.315 89.9906 131.868 100.517C133.826 108.592 130.51 116.711 124.131 121.252L125.201 124.251C125.659 124.035 126.11 123.801 126.551 123.552L125.922 121.788C127.253 120.727 128.454 119.508 129.499 118.152Z" fill="#404E85"/>
<path d="M147.034 33.0612C147.222 33.3815 147.41 33.7079 147.595 34.0304C147.612 34.0605 147.631 34.0901 147.65 34.1185C147.836 34.3942 148.112 34.5917 148.435 34.6793C148.793 34.7764 149.168 34.7284 149.489 34.5443C150.094 34.1972 150.349 33.4506 150.081 32.8073C150.059 32.7537 150.032 32.7007 150.003 32.6499C149.814 32.3185 149.621 31.9854 149.43 31.659C149.043 30.9983 148.192 30.7757 147.532 31.1618C146.871 31.5479 146.648 32.3994 147.034 33.0601V33.0612Z" fill="#404E85"/>
<path d="M144.005 28.7185C144.223 29.0181 144.443 29.3239 144.659 29.6269C145.103 30.2501 145.971 30.3952 146.595 29.9511C147.148 29.5566 147.335 28.8262 147.038 28.2157C147.004 28.146 146.963 28.079 146.919 28.016C146.696 27.703 146.471 27.3905 146.25 27.0864C145.8 26.4676 144.93 26.3303 144.311 26.7801C143.706 27.2203 143.561 28.0629 143.977 28.6789C143.986 28.6923 143.996 28.7056 144.005 28.7185Z" fill="#404E85"/>
<path d="M140.542 25.1758C140.786 25.4214 141.042 25.6819 141.324 25.9721C141.857 26.5206 142.737 26.5334 143.286 26C143.758 25.5419 143.842 24.8087 143.488 24.2563C143.438 24.1787 143.38 24.1045 143.314 24.0376C143.023 23.7385 142.76 23.4701 142.51 23.2185C141.97 22.6761 141.09 22.6733 140.547 23.2129C140.068 23.6894 140.01 24.4321 140.375 24.9727C140.423 25.0442 140.479 25.1122 140.542 25.1753L140.542 25.1758Z" fill="#404E85"/>
<path d="M136.365 21.7733C136.441 21.8843 136.532 21.9853 136.639 22.0729L136.722 22.1404C136.983 22.3536 137.242 22.5684 137.491 22.7799C138.075 23.2742 138.953 23.2017 139.447 22.6181C139.844 22.1499 139.885 21.4664 139.546 20.9553C139.473 20.8459 139.386 20.7477 139.285 20.6623C139.021 20.438 138.748 20.2115 138.476 19.9894L138.395 19.9236C138.109 19.6892 137.747 19.5804 137.378 19.6178C137.009 19.6552 136.677 19.8337 136.442 20.1205C136.208 20.4073 136.099 20.7689 136.137 21.1377C136.16 21.3693 136.239 21.5864 136.365 21.7738V21.7733Z" fill="#404E85"/>
<path d="M131.772 18.7987C131.896 19.0174 132.079 19.1988 132.305 19.3237C132.583 19.4772 132.895 19.6552 133.259 19.8683C133.92 20.2545 134.771 20.0318 135.157 19.3712C135.468 18.8405 135.396 18.1805 134.979 17.729C134.887 17.6286 134.779 17.5421 134.66 17.4729C134.276 17.2481 133.944 17.0589 133.647 16.8943C132.977 16.5244 132.131 16.7682 131.761 17.4383C131.582 17.7631 131.54 18.1375 131.643 18.494C131.674 18.6017 131.717 18.7038 131.772 18.7992V18.7987Z" fill="#404E85"/>
<path d="M126.632 16.7404C126.775 16.9479 126.973 17.1125 127.209 17.2174C127.499 17.3463 127.825 17.497 128.205 17.6783C128.897 18.0064 129.726 17.7112 130.054 17.0205C130.318 16.4647 130.191 15.8136 129.736 15.3995C129.635 15.3075 129.521 15.2305 129.397 15.1713C128.994 14.9805 128.648 14.8204 128.337 14.682C127.638 14.3712 126.816 14.6864 126.505 15.3856C126.355 15.7243 126.344 16.1015 126.478 16.4474C126.518 16.5523 126.57 16.6505 126.632 16.7404H126.632Z" fill="#404E85"/>
<path d="M91.3723 168.418L90.0683 168.59C89.4015 168.678 88.9322 169.289 89.0204 169.956C89.1086 170.623 89.7201 171.092 90.3869 171.004L91.6909 170.832C91.7668 170.822 91.8399 170.805 91.9102 170.782C92.457 170.604 92.8169 170.057 92.7393 169.466C92.6512 168.799 92.0396 168.33 91.3728 168.418H91.3723Z" fill="#404E85"/>
<path d="M85.9643 169.131L84.6603 169.303C83.9936 169.391 83.5243 170.003 83.6124 170.67C83.7006 171.336 84.3122 171.806 84.9789 171.718L86.2829 171.546C86.3588 171.536 86.4319 171.519 86.5022 171.496C87.049 171.318 87.4089 170.77 87.3308 170.179C87.2427 169.512 86.6311 169.043 85.9643 169.131Z" fill="#404E85"/>
<path d="M80.5559 169.845L79.2519 170.017C78.5851 170.105 78.1158 170.717 78.204 171.383C78.2922 172.05 78.9037 172.519 79.5705 172.431L80.8745 172.259C80.9504 172.249 81.0235 172.233 81.0938 172.21C81.6406 172.032 82.0005 171.484 81.9229 170.893C81.8348 170.226 81.2232 169.757 80.5564 169.845H80.5559Z" fill="#404E85"/>
<path d="M107.326 166.4L106.022 166.572C105.355 166.66 104.886 167.272 104.974 167.938C105.062 168.605 105.674 169.074 106.341 168.986L107.645 168.814C107.721 168.804 107.794 168.788 107.864 168.765C108.411 168.587 108.771 168.039 108.693 167.448C108.604 166.781 107.993 166.312 107.326 166.4Z" fill="#404E85"/>
<path d="M101.917 167.114L100.613 167.286C99.9467 167.374 99.4774 167.985 99.5656 168.652C99.6537 169.319 100.265 169.788 100.932 169.7L102.236 169.528C102.312 169.518 102.385 169.501 102.455 169.478C103.002 169.3 103.362 168.752 103.284 168.162C103.196 167.495 102.585 167.026 101.918 167.114H101.917Z" fill="#404E85"/>
<path d="M96.509 167.827L95.205 167.999C94.5382 168.087 94.069 168.699 94.1571 169.366C94.2453 170.033 94.8568 170.502 95.5236 170.414L96.8276 170.242C96.9035 170.232 96.9766 170.215 97.0469 170.192C97.5937 170.014 97.9536 169.466 97.8755 168.875C97.7873 168.209 97.1758 167.739 96.509 167.827Z" fill="#404E85"/>
<path d="M155.558 63.1965L157.532 61.2218C157.948 60.8061 157.948 60.1321 157.532 59.7158C157.116 59.3001 156.442 59.3001 156.026 59.7158L154.052 61.6905C153.636 62.1062 153.636 62.7802 154.052 63.1965C154.467 63.6122 155.141 63.6122 155.558 63.1965Z" fill="#404E85"/>
<path d="M163.929 54.8252L165.904 52.8505C166.32 52.4348 166.32 51.7607 165.904 51.3445C165.488 50.9288 164.814 50.9288 164.398 51.3445L162.423 53.3192C162.008 53.7349 162.008 54.4089 162.423 54.8252C162.839 55.2408 163.513 55.2408 163.929 54.8252Z" fill="#404E85"/>
<path d="M164.398 63.1965C164.814 63.6122 165.488 63.6122 165.904 63.1965C166.32 62.7808 166.32 62.1068 165.904 61.6905L163.929 59.7158C163.514 59.3001 162.84 59.3001 162.423 59.7158C162.008 60.1315 162.008 60.8056 162.423 61.2218L164.398 63.1965Z" fill="#404E85"/>
<path d="M156.026 54.8252C156.442 55.2408 157.116 55.2408 157.532 54.8252C157.948 54.4095 157.948 53.7354 157.532 53.3192L155.558 51.3445C155.142 50.9288 154.468 50.9288 154.052 51.3445C153.636 51.7602 153.636 52.4342 154.052 52.8505L156.026 54.8252Z" fill="#404E85"/>
<path d="M112.225 171.562L110.83 172.957C110.537 173.25 110.537 173.727 110.83 174.02C111.124 174.314 111.6 174.314 111.894 174.02L113.289 172.625C113.582 172.332 113.582 171.855 113.289 171.562C112.995 171.268 112.519 171.268 112.225 171.562H112.225Z" fill="#404E85"/>
<path d="M118.138 165.648L116.743 167.043C116.45 167.336 116.45 167.813 116.743 168.106C117.037 168.4 117.513 168.4 117.807 168.106L119.202 166.711C119.495 166.418 119.495 165.941 119.202 165.648C118.908 165.354 118.432 165.354 118.138 165.648V165.648Z" fill="#404E85"/>
<path d="M117.807 171.562C117.514 171.268 117.037 171.268 116.744 171.562C116.45 171.855 116.45 172.332 116.744 172.625L118.139 174.02C118.432 174.314 118.909 174.314 119.202 174.02C119.496 173.727 119.496 173.25 119.202 172.957L117.807 171.562V171.562Z" fill="#404E85"/>
<path d="M111.894 165.648C111.6 165.355 111.124 165.355 110.83 165.648C110.537 165.942 110.537 166.418 110.83 166.712L112.225 168.107C112.518 168.4 112.995 168.4 113.288 168.107C113.582 167.813 113.582 167.337 113.288 167.043L111.893 165.649L111.894 165.648Z" fill="#404E85"/>
<path d="M88.8909 17.5923L90.2853 16.1973C90.5788 15.9038 90.5788 15.4273 90.2853 15.1338C89.9918 14.8403 89.5153 14.8403 89.2218 15.1338L87.8268 16.5288C87.5333 16.8223 87.5333 17.2988 87.8268 17.5923C88.1203 17.8858 88.5968 17.8858 88.8903 17.5923H88.8909Z" fill="#404E85"/>
<path d="M94.8042 11.6783L96.1986 10.2834C96.4921 9.98989 96.4921 9.51338 96.1986 9.21988C95.9051 8.92638 95.4286 8.92638 95.1351 9.21988L93.7401 10.6148C93.4466 10.9083 93.4466 11.3848 93.7401 11.6783C94.0336 11.9718 94.5102 11.9718 94.8036 11.6783H94.8042Z" fill="#404E85"/>
<path d="M95.135 17.5923C95.4285 17.8858 95.905 17.8858 96.1985 17.5923C96.492 17.2988 96.492 16.8223 96.1985 16.5288L94.8041 15.1344C94.5106 14.8409 94.0341 14.8409 93.7406 15.1344C93.4471 15.4279 93.4471 15.9044 93.7406 16.1979L95.1356 17.5923H95.135Z" fill="#404E85"/>
<path d="M89.2217 11.6784C89.5152 11.9719 89.9917 11.9719 90.2852 11.6784C90.5787 11.3849 90.5787 10.9084 90.2852 10.6149L88.8908 9.22049C88.5973 8.92699 88.1208 8.92699 87.8273 9.22049C87.5338 9.51399 87.5338 9.9905 87.8273 10.284L89.2222 11.6784H89.2217Z" fill="#404E85"/>
<path d="M48.6148 95.0531L47.2199 96.4481C46.9264 96.7416 46.9264 97.2181 47.2199 97.5116C47.5134 97.8051 47.9899 97.8051 48.2834 97.5116L49.6783 96.1166C49.9718 95.8231 49.9718 95.3466 49.6783 95.0531C49.3848 94.7596 48.9083 94.7596 48.6148 95.0531Z" fill="#404E85"/>
<path d="M54.5289 89.1397L53.1339 90.5346C52.8404 90.8281 52.8404 91.3046 53.1339 91.5981C53.4274 91.8916 53.904 91.8916 54.1974 91.5981L55.5924 90.2032C55.8859 89.9097 55.8859 89.4332 55.5924 89.1397C55.2989 88.8462 54.8224 88.8462 54.5289 89.1397Z" fill="#404E85"/>
<path d="M54.1974 95.0531C53.904 94.7596 53.4274 94.7596 53.1339 95.0531C52.8404 95.3466 52.8404 95.8231 53.1339 96.1166L54.5289 97.5116C54.8224 97.8051 55.2989 97.8051 55.5924 97.5116C55.8859 97.2181 55.8859 96.7416 55.5924 96.4481L54.1974 95.0531Z" fill="#404E85"/>
<path d="M48.2839 89.1397C47.9904 88.8462 47.5139 88.8462 47.2204 89.1397C46.9269 89.4332 46.9269 89.9097 47.2204 90.2032L48.6153 91.5981C48.9088 91.8916 49.3853 91.8916 49.6788 91.5981C49.9723 91.3046 49.9723 90.8281 49.6788 90.5346L48.2839 89.1397Z" fill="#404E85"/>
<path d="M183.087 123.361L181.693 124.756C181.399 125.05 181.399 125.526 181.693 125.82C181.986 126.113 182.463 126.113 182.756 125.82L184.15 124.425C184.444 124.131 184.444 123.655 184.15 123.361C183.857 123.068 183.38 123.068 183.087 123.361H183.087Z" fill="#404E85"/>
<path d="M188.67 119.906L190.065 118.511C190.358 118.217 190.358 117.741 190.065 117.447C189.771 117.154 189.295 117.154 189.001 117.447L187.606 118.842C187.313 119.135 187.313 119.612 187.606 119.906C187.9 120.199 188.376 120.199 188.67 119.906H188.67Z" fill="#404E85"/>
<path d="M188.67 123.361C188.377 123.068 187.9 123.068 187.607 123.361C187.313 123.655 187.313 124.131 187.607 124.425L189.002 125.819C189.295 126.113 189.772 126.113 190.065 125.819C190.359 125.526 190.359 125.049 190.065 124.756L188.671 123.361H188.67Z" fill="#404E85"/>
<path d="M182.757 117.448C182.463 117.154 181.987 117.154 181.693 117.448C181.4 117.741 181.4 118.218 181.693 118.511L183.088 119.906C183.382 120.199 183.858 120.199 184.152 119.906C184.445 119.612 184.445 119.136 184.152 118.842L182.757 117.448H182.757Z" fill="#404E85"/>
<path d="M13.4105 4.68408L4.99023 19.2675H21.8301L13.4105 4.68408Z" fill="#FFC843"/>
<path d="M3.58709 105.022L0.000732422 108.608L1.3607 109.968L4.94705 106.382L3.58709 105.022Z" fill="#404E85"/>
<path d="M10.2013 98.4075L6.61499 101.994L7.97495 103.354L11.5613 99.7675L10.2013 98.4075Z" fill="#404E85"/>
<path d="M7.97495 105.023L6.61499 106.383L10.2013 109.969L11.5613 108.609L7.97495 105.023Z" fill="#404E85"/>
<path d="M1.35996 98.4081L0 99.7681L3.58636 103.354L4.94632 101.994L1.35996 98.4081Z" fill="#404E85"/>
<path d="M25.6148 16.5067H8.77496C8.43125 16.5067 8.11422 16.3237 7.94237 16.0259C7.77051 15.7281 7.77051 15.362 7.94237 15.0642L16.362 0.48082C16.5338 0.183022 16.8515 0 17.1946 0C17.5377 0 17.8553 0.183022 18.0272 0.48082L26.4468 15.0649C26.6186 15.3627 26.6186 15.7287 26.4468 16.0265C26.2749 16.3243 25.9573 16.5073 25.6142 16.5073L25.6148 16.5067ZM10.4408 14.5834H23.9496L17.1952 2.8843L10.4408 14.5834Z" fill="#404E85"/>
<path d="M218.695 48.6841H208V59.3794H218.695V48.6841Z" fill="#FFC843"/>
<path d="M225.087 122.693L221.5 126.279L222.86 127.639L226.447 124.053L225.087 122.693Z" fill="#404E85"/>
<path d="M231.701 116.078L228.115 119.665L229.475 121.025L233.061 117.438L231.701 116.078Z" fill="#404E85"/>
<path d="M229.474 122.691L228.114 124.051L231.701 127.637L233.061 126.277L229.474 122.691Z" fill="#404E85"/>
<path d="M222.859 116.076L221.5 117.436L225.086 121.022L226.446 119.662L222.859 116.076Z" fill="#404E85"/>
<path d="M222.48 56.6186H211.784C211.253 56.6186 210.823 56.188 210.823 55.6569V44.9616C210.823 44.4306 211.253 44 211.784 44H222.48C223.011 44 223.441 44.4306 223.441 44.9616V55.6569C223.441 56.188 223.011 56.6186 222.48 56.6186ZM212.746 54.6953H221.518V45.9233H212.746V54.6953Z" fill="#404E85"/>
</svg>
