<svg width="72" height="71" viewBox="0 0 72 71" fill="none" xmlns="http://www.w3.org/2000/svg">
<g clip-path="url(#clip0_90_5725)">
<ellipse cx="37.6039" cy="36.2283" rx="29.7638" ry="30.7283" fill="#FDD32A"/>
<path d="M35.2452 67.9917C44.4094 67.994 51.7162 65.208 57.7304 59.258C64.9789 52.0877 68.7612 43.3657 68.6866 33.1912C68.6283 25.1867 65.6311 18.154 60.2632 12.2122C57.0421 8.64684 52.8619 6.52817 48.4017 4.92634C46.3437 4.18784 44.2297 3.64301 42.0866 3.21251C41.6584 3.12734 41.2232 3.05618 40.8102 2.92084C40.0811 2.68168 39.7334 2.12868 39.8489 1.48001C39.9632 0.834842 40.4964 0.434676 41.2664 0.508176C41.8567 0.565342 42.4389 0.712342 43.0222 0.833675C47.0472 1.66784 50.9101 2.96051 54.5676 4.85751C59.1911 7.25501 62.9174 10.622 65.6521 15.0588C69.7482 21.7053 71.8692 28.878 71.0993 36.7285C70.1951 45.9475 66.5352 53.9287 60.0159 60.5495C52.2902 68.3965 42.8484 71.396 32.0194 70.2725C24.0849 69.4488 16.9332 66.6045 10.7056 61.5762C6.96408 58.5557 4.01941 54.9017 2.29275 50.3645C0.357248 45.2767 0.284915 40.0733 1.84008 34.9213C4.97842 24.5252 11.2107 16.4437 20.5709 10.8892C24.9739 8.27584 29.8272 7.16751 34.9454 7.27484C37.5237 7.32968 39.9924 7.85118 42.2289 9.21034C43.3244 9.87651 44.3149 10.664 45.0219 11.7583C45.2622 12.1293 45.4571 12.5143 45.4512 12.974C45.4454 13.4523 45.2506 13.8198 44.8259 14.0462C44.3534 14.297 43.9031 14.2247 43.4912 13.905C43.3676 13.8093 43.2579 13.6845 43.1727 13.5538C41.5476 11.0548 39.0299 10.1752 36.2649 9.91384C31.6507 9.47751 27.2489 10.3467 23.0886 12.3942C14.0609 16.8368 5.95375 27.2808 3.88175 37.1485C2.24375 44.95 4.27025 51.7003 9.83641 57.3692C14.6162 62.2377 20.4834 65.1847 27.0342 66.8647C29.9719 67.6183 32.9667 67.9578 35.2441 67.9917H35.2452Z" fill="black"/>
<path d="M47.6434 45.3093C46.0311 45.8541 44.4118 46.3663 42.7481 46.7396C36.8063 48.0731 30.8644 48.0778 24.9051 46.8761C24.2191 46.7384 23.4549 46.1738 22.8833 46.5238C22.3723 46.8364 22.4971 47.7546 22.2661 48.3858C21.6361 50.1124 20.6094 51.5404 19.1476 52.6499C18.8664 52.8634 18.5561 53.0629 18.2283 53.1878C17.6484 53.4094 17.0826 53.2006 16.7711 52.7071C16.4538 52.2043 16.5273 51.7178 16.8866 51.2756C17.0336 51.0936 17.2238 50.9396 17.4163 50.8019C19.4183 49.3658 20.2478 47.3346 20.3481 44.9569C20.4158 43.3633 20.3726 41.7871 19.4299 40.3731C19.0764 39.8423 19.2456 39.2356 19.6819 38.8704C20.1136 38.5088 20.7098 38.4866 21.2324 38.8249C21.6489 39.0933 21.9009 39.4969 22.0993 39.9356C22.4633 40.7371 22.7514 41.5829 22.7468 42.4556C22.7421 43.4508 23.2449 43.8288 24.1141 44.0703C25.4196 44.4319 26.7403 44.6944 28.0773 44.8694C33.6178 45.5939 39.0871 45.2358 44.4701 43.7074C44.8131 43.6106 45.1433 43.4648 45.4886 43.3773C47.0846 42.9759 48.3166 42.2864 48.4204 40.3708C48.4601 39.6381 48.8766 38.9416 49.2208 38.2684C49.3468 38.0223 49.4798 37.7726 49.6524 37.5579C50.0759 37.0318 50.7118 36.8778 51.2438 37.1414C51.7816 37.4086 52.0126 38.0036 51.8003 38.6744C51.7058 38.9743 51.5319 39.2484 51.4013 39.5378C50.1588 42.2911 49.9266 45.1121 50.8448 48.0054C51.1224 48.8816 51.5156 49.7006 52.0861 50.4298C52.2553 50.6468 52.4314 50.8801 52.5178 51.1344C52.6963 51.6641 52.6111 52.1669 52.1421 52.5274C51.6789 52.8833 51.1784 52.8786 50.7036 52.5484C50.1354 52.1541 49.7679 51.5801 49.4273 50.9968C48.5744 49.5373 48.1054 47.9459 47.8534 46.2834C47.8068 45.9766 47.8453 45.6499 47.6411 45.3069L47.6434 45.3093Z" fill="black"/>
<path d="M27.9629 29.207C27.9629 28.4697 28.5147 27.9412 29.2556 27.968C29.9486 27.9925 30.5237 28.5712 30.5494 29.27C30.5751 29.9689 29.9836 30.6024 29.3104 30.5989C28.6034 30.5954 27.9617 29.9327 27.9629 29.207Z" fill="black"/>
<path d="M47.2455 28.6529C47.879 28.6237 48.4169 29.0881 48.4659 29.7076C48.5195 30.3726 47.984 30.9372 47.3015 30.9372C46.6645 30.9372 46.1535 30.4472 46.1372 29.8242C46.122 29.2036 46.6144 28.6821 47.2444 28.6529H47.2455Z" fill="black"/>
</g>
<defs>
<clipPath id="clip0_90_5725">
<rect width="70.504" height="70" fill="white" transform="translate(0.748047 0.5)"/>
</clipPath>
</defs>
</svg>
