<svg width="72" height="71" viewBox="0 0 72 71" fill="none" xmlns="http://www.w3.org/2000/svg">
<g clip-path="url(#clip0_90_5521)">
<ellipse cx="35.9317" cy="35.3621" rx="29.7638" ry="30.7283" fill="#FDD32A"/>
<path d="M34.2201 67.6813C38.5286 67.6591 43.7448 66.1809 48.5456 63.3576C57.2898 58.2173 63.5781 50.9081 67.1609 41.4149C69.5013 35.2164 69.5724 28.9141 67.0653 22.6934C65.3211 18.3674 62.3683 14.9619 58.7668 12.0838C53.9438 8.22911 48.4278 5.92377 42.3821 4.82594C39.5646 4.31377 36.7448 3.81561 33.9261 3.31277C33.5364 3.24277 33.1374 3.20427 32.7991 2.96744C32.3278 2.63727 32.0618 2.19161 32.1691 1.61177C32.2846 0.985274 32.6824 0.588607 33.3264 0.515107C33.6274 0.481274 33.9448 0.50344 34.2434 0.557107C38.1891 1.25827 42.1709 1.78911 46.0606 2.77261C52.0129 4.27877 57.3633 6.99361 61.9448 11.1049C70.9666 19.1993 73.6126 29.1906 70.3284 40.7184C68.1853 48.2423 63.7018 54.3883 58.0971 59.7374C53.6311 63.9993 48.5106 67.2379 42.5641 68.9891C30.5568 72.5229 19.9879 69.8139 10.9626 61.2494C5.38944 55.9621 1.95711 49.4183 0.74144 41.8221C-0.523227 33.9203 0.95494 26.6356 6.22361 20.3788C8.81711 17.2988 12.0464 15.0133 15.6048 13.1781C21.3483 10.2171 27.4289 8.64794 33.9191 8.79027C39.1878 8.90577 44.0878 10.3116 48.6273 12.9844C48.7416 13.0509 48.8606 13.1116 48.9656 13.1898C49.6248 13.6798 49.8406 14.4101 49.5174 15.0366C49.1954 15.6596 48.4756 15.9268 47.6811 15.6001C46.9099 15.2816 46.1808 14.8604 45.4411 14.4696C42.2736 12.7931 38.8833 11.9333 35.3226 11.6824C29.3364 11.2589 23.6629 12.4606 18.2519 14.9911C15.3213 16.3619 12.5959 18.0559 10.2136 20.2644C5.21561 24.8996 2.85777 30.7271 3.16344 37.4366C3.68727 48.9388 9.09127 57.7203 18.8399 63.7776C23.1239 66.4399 27.8746 67.6778 34.2189 67.6813H34.2201Z" fill="black"/>
<path d="M25.1902 46.0117C26.5342 45.9883 27.6775 46.5063 28.7112 47.3172C29.7938 48.1665 30.6688 49.2177 31.552 50.2595C32.0082 50.7973 32.4585 51.3375 33.0173 51.7785C33.5727 52.216 34.1222 52.2463 34.7207 51.866C35.6563 51.2698 36.452 50.508 37.2582 49.7578C37.9675 49.0975 38.6465 48.4045 39.4807 47.8923C41.6262 46.5752 43.501 46.833 45.1238 48.7417C45.72 49.4428 46.2042 50.2408 46.7385 50.9933C47.4688 52.0223 47.722 52.0632 48.7358 51.2687C49.5723 50.613 50.2572 49.8033 50.9513 49.0053C51.5358 48.3333 52.1927 47.7582 53.0233 47.4023C54.526 46.7583 56.1523 47.099 57.2572 48.296C57.893 48.9855 57.9887 49.7287 57.515 50.3155C57.0168 50.9327 56.339 50.9793 55.513 50.452C54.3732 49.7252 54.1083 49.7497 53.1855 50.7168C52.7597 51.1637 52.3677 51.6408 51.9465 52.0912C51.404 52.671 50.8323 53.2205 50.1872 53.6872C47.9903 55.2785 46.112 54.96 44.5312 52.727C44.0225 52.0083 43.5628 51.25 43.0028 50.5745C42.2947 49.7205 41.9167 49.7018 40.9542 50.2793C40.3813 50.6223 39.9205 51.0995 39.4375 51.5498C38.4703 52.4505 37.53 53.385 36.4123 54.1037C34.4337 55.3753 32.7467 55.2727 30.9838 53.7222C30.3923 53.2018 29.8813 52.5847 29.3563 51.992C28.6552 51.201 27.9995 50.3668 27.1828 49.6855C25.8692 48.5888 24.9265 48.5235 23.4483 49.402C22.837 49.7648 22.3167 50.242 21.8173 50.739C20.7557 51.7948 19.7068 52.8658 18.6393 53.917C18.2333 54.3172 17.8168 54.7208 17.2393 54.8807C16.565 55.0673 15.9338 54.8585 15.6072 54.3428C15.2782 53.8237 15.3365 53.14 15.837 52.6523C17.5065 51.0213 19.1632 49.3763 20.8933 47.8107C22.0927 46.7245 23.5242 46.049 25.1902 46.0105V46.0117Z" fill="black"/>
<path d="M20.156 24.2954C23.6093 24.4284 26.981 25.0491 30.3025 25.9708C31.4995 26.3033 32.6428 26.7594 33.6322 27.5283C35.3728 28.8804 35.5338 30.7004 34.0603 32.3268C33.463 32.9859 32.7455 33.4969 31.9895 33.9566C29.6445 35.3799 27.1058 36.3938 24.5742 37.4158C23.6385 37.7938 22.8685 37.4811 22.5873 36.7344C22.305 35.9866 22.6433 35.2691 23.5685 34.8409C24.6873 34.3229 25.84 33.8796 26.9658 33.3768C28.374 32.7479 29.7868 32.1226 31.0492 31.2219C31.4703 30.9209 32.1295 30.6514 32.0805 30.1113C32.0245 29.5023 31.3082 29.3308 30.7925 29.1173C28.8663 28.3216 26.8223 27.9599 24.7853 27.6029C22.613 27.2226 20.422 27.0033 18.21 27.0674C17.9032 27.0768 17.5882 27.0826 17.2872 27.0289C16.6047 26.9076 16.1543 26.4059 16.1193 25.7829C16.0832 25.1529 16.4577 24.5953 17.1343 24.4086C18.1272 24.1344 19.148 24.2546 20.1583 24.2954H20.156Z" fill="black"/>
<path d="M48.3368 31.6721C48.6506 32.2297 49.2188 32.4094 49.7193 32.6579C51.1391 33.3649 52.5776 34.0334 54.001 34.7311C54.5143 34.9831 55.0451 35.2246 55.4465 35.6457C55.8746 36.0926 56.0508 36.6141 55.7556 37.2149C55.4698 37.7971 54.9051 38.0596 54.204 37.9219C54.0336 37.8881 53.8645 37.8262 53.7081 37.7492C51.7715 36.7961 49.8336 35.8452 47.9051 34.8769C47.274 34.5596 46.679 34.1769 46.189 33.6566C45.2591 32.6696 45.1226 31.5729 45.7818 30.3852C46.1983 29.6351 46.819 29.0774 47.5096 28.5909C48.3741 27.9819 49.2573 27.3974 50.1043 26.7639C51.5148 25.7092 52.9381 24.6686 54.099 23.3164C54.6555 22.6677 55.4045 22.5744 55.9831 22.9699C56.591 23.3864 56.7251 24.2147 56.29 24.9824C55.9586 25.5669 55.4593 26.0091 54.9681 26.4501C53.3255 27.9259 51.5451 29.2232 49.724 30.4692C49.2188 30.8146 48.667 31.1121 48.338 31.6721H48.3368Z" fill="black"/>
</g>
<defs>
<clipPath id="clip0_90_5521">
<rect width="71.3685" height="70" fill="white" transform="translate(0.315674 0.5)"/>
</clipPath>
</defs>
</svg>
