<svg width="80" height="71" viewBox="0 0 80 71" fill="none" xmlns="http://www.w3.org/2000/svg">
<g clip-path="url(#clip0_90_5817)">
<ellipse cx="42.4588" cy="35.2283" rx="29.7638" ry="30.7283" fill="#FDD32A"/>
<path d="M42.5509 3.00831C42.7038 2.74814 42.5848 2.60931 42.5369 2.45298C42.1426 1.15564 42.8368 0.254976 44.1166 0.558309C52.8993 2.63731 61.3063 5.59831 68.4474 11.364C74.0124 15.8556 77.6408 21.5641 78.8868 28.654C79.9123 34.492 79.2099 40.1981 77.0924 45.7083C73.0406 56.248 65.6789 63.6295 55.1276 67.4923C40.8126 72.733 27.1043 71.1358 14.4133 62.5993C7.8811 58.2056 3.41043 52.1635 1.5461 44.4016C-0.125734 37.4471 0.625599 30.6385 3.07793 23.9873C6.4006 14.9701 12.8849 9.23014 21.8111 6.03814C27.5196 3.99648 33.4253 3.13664 39.4593 3.01181C40.5069 2.98964 41.5569 3.00831 42.5521 3.00831H42.5509ZM41.4193 5.70564C38.1444 5.71381 35.9091 5.81064 33.6831 6.06848C28.7878 6.63431 24.0476 7.77648 19.5629 9.86481C14.4028 12.2681 10.2716 15.8055 7.4821 20.8245C5.29693 24.7561 4.0311 28.9841 3.55743 33.435C2.9776 38.8693 3.6216 44.1438 6.04827 49.1091C8.64643 54.4256 12.6236 58.5055 17.6321 61.5493C27.5313 67.5658 38.1934 69.184 49.4273 66.4901C59.2821 64.1265 67.0241 58.7003 72.1854 49.8593C75.2083 44.6805 76.8171 39.0653 76.6503 33.0605C76.4344 25.2835 73.1981 18.8971 67.2691 13.8711C63.5229 10.6955 59.2576 8.41348 54.7204 6.60748C53.4663 6.10814 52.1794 5.69514 50.9136 5.22381C50.4924 5.06748 50.2848 5.08264 50.0584 5.57498C49.6676 6.42548 49.2546 6.59931 48.3154 6.37298C45.7021 5.74414 43.0456 5.70798 41.4193 5.70681V5.70564Z" fill="black"/>
<path d="M39.5118 54.0325C34.2618 53.9649 30.0174 52.9837 25.9738 51.1322C25.3251 50.8359 24.6986 50.466 24.1199 50.0495C23.3674 49.507 23.2053 48.681 23.6393 48.0709C24.0476 47.498 24.7896 47.3685 25.5643 47.8434C28.5358 49.6669 31.8164 50.6072 35.2196 51.0715C42.3724 52.048 48.8101 50.3062 54.3109 45.5719C58.1679 42.2515 61.0391 38.1437 63.3094 33.6054C63.5171 33.1912 63.7003 32.7572 63.9639 32.3792C64.3898 31.769 65.0408 31.6045 65.6241 31.8904C66.2039 32.175 66.4688 32.7887 66.2821 33.5015C66.2086 33.7839 66.0686 34.051 65.9414 34.317C63.7761 38.8554 60.9376 42.927 57.3431 46.4434C52.1759 51.4974 45.9168 53.924 39.5118 54.0325Z" fill="black"/>
<path d="M47.2922 28.4441C47.2899 27.5726 47.5862 26.8726 48.0704 26.2706C49.0481 25.0537 50.0491 23.8521 51.0734 22.6737C51.6206 22.0449 52.3089 21.9644 52.8771 22.3727C53.4324 22.7706 53.5794 23.4764 53.2037 24.1869C52.7849 24.9779 52.1199 25.5846 51.5611 26.2706C51.3476 26.5319 51.1189 26.7816 50.8996 27.0382C49.7084 28.4277 49.7236 28.5246 51.4642 29.2549C53.6821 30.1847 55.9139 31.0819 58.1329 32.0071C58.5191 32.1681 58.9146 32.3501 59.2377 32.6067C59.7091 32.9801 59.8584 33.5027 59.6239 34.0837C59.4022 34.6356 58.8049 34.9599 58.1772 34.8584C57.9299 34.8187 57.6872 34.7277 57.4539 34.6309C54.9957 33.6194 52.5376 32.6079 50.0852 31.5836C49.4622 31.3234 48.8579 31.0177 48.3387 30.5721C47.6632 29.9934 47.2607 29.2829 47.2934 28.4417L47.2922 28.4441Z" fill="black"/>
<path d="M27.3679 25.6358C28.1799 25.6089 28.9581 26.3078 28.9838 27.0859C29.0094 27.8548 27.8929 28.8896 27.0249 28.8989C26.2538 28.9071 25.7369 28.3599 25.7264 27.5211C25.7136 26.5084 26.4474 25.6661 27.3668 25.6358H27.3679Z" fill="black"/>
</g>
<defs>
<clipPath id="clip0_90_5817">
<rect width="78.7045" height="70" fill="white" transform="translate(0.647766 0.5)"/>
</clipPath>
</defs>
</svg>
