<svg width="22" height="23" viewBox="0 0 22 23" fill="none" xmlns="http://www.w3.org/2000/svg">
<path d="M1.83325 11.4999C1.83325 16.5627 5.93717 20.6666 10.9999 20.6666C16.0627 20.6666 20.1666 16.5627 20.1666 11.4999C20.1666 6.43717 16.0627 2.33325 10.9999 2.33325C5.93717 2.33325 1.83325 6.43717 1.83325 11.4999Z" fill="white" stroke="#485972" stroke-width="1.5" stroke-linecap="round" stroke-linejoin="round"/>
<path d="M11.9165 2.37915C11.9165 2.37915 14.6665 5.99998 14.6665 11.5C14.6665 17 11.9165 20.6208 11.9165 20.6208M10.0831 20.6208C10.0831 20.6208 7.33314 17 7.33314 11.5C7.33314 5.99998 10.0831 2.37915 10.0831 2.37915M2.41064 14.7083H19.589M2.41064 8.29165H19.589" stroke="#485972" stroke-width="1.5" stroke-linecap="round" stroke-linejoin="round"/>
</svg>
