<svg width="22" height="23" viewBox="0 0 22 23" fill="none" xmlns="http://www.w3.org/2000/svg">
<g clip-path="url(#clip0_89_879)">
<path d="M18.3334 11.4999V5.76984C18.3335 5.69748 18.3193 5.62582 18.2916 5.55897C18.2639 5.49212 18.2233 5.43138 18.1721 5.38025L15.2864 2.49459C15.1834 2.39141 15.0436 2.33338 14.8977 2.33325H4.21675C4.07088 2.33325 3.93098 2.3912 3.82784 2.49434C3.72469 2.59749 3.66675 2.73738 3.66675 2.88325V20.1166C3.66675 20.2625 3.72469 20.4023 3.82784 20.5055C3.93098 20.6086 4.07088 20.6666 4.21675 20.6666H11.9167M7.33341 9.66658H14.6667M7.33341 5.99992H11.0001M7.33341 13.3333H10.0834" stroke="#485972" stroke-width="1.5" stroke-linecap="round" stroke-linejoin="round"/>
<path d="M14.6667 2.33325V5.44992C14.6667 5.59579 14.7247 5.73568 14.8278 5.83883C14.931 5.94197 15.0709 5.99992 15.2167 5.99992H18.3334M18.3261 14.3645L20.6691 14.9594C20.9129 15.0218 21.0843 15.2436 21.077 15.4948C20.9193 20.7729 17.8751 21.5833 17.8751 21.5833C17.8751 21.5833 14.8308 20.7729 14.6732 15.4948C14.6703 15.3725 14.7092 15.2529 14.7833 15.1556C14.8574 15.0583 14.9624 14.9891 15.0811 14.9594L17.4241 14.3645C17.7202 14.2893 18.03 14.2893 18.3261 14.3645Z" stroke="#485972" stroke-width="1.5" stroke-linecap="round" stroke-linejoin="round"/>
</g>
<defs>
<clipPath id="clip0_89_879">
<rect width="22" height="22" fill="white" transform="translate(0 0.5)"/>
</clipPath>
</defs>
</svg>
