<svg width="22" height="23" viewBox="0 0 22 23" fill="none" xmlns="http://www.w3.org/2000/svg">
<path d="M14.0708 18.8333L12.2833 20.5979C11.9319 20.9493 11.5042 21.125 11 21.125C10.4958 21.125 10.0681 20.9493 9.71667 20.5979L7.92917 18.8333H5.5C4.99583 18.8333 4.56408 18.6537 4.20475 18.2943C3.84542 17.935 3.66606 17.5036 3.66667 17V14.5708L1.90208 12.7833C1.55069 12.4319 1.375 12.0042 1.375 11.5C1.375 10.9958 1.55069 10.5681 1.90208 10.2167L3.66667 8.42917V6C3.66667 5.49583 3.84633 5.06408 4.20567 4.70475C4.565 4.34542 4.99644 4.16606 5.5 4.16667H7.92917L9.71667 2.40208C10.0681 2.05069 10.4958 1.875 11 1.875C11.5042 1.875 11.9319 2.05069 12.2833 2.40208L14.0708 4.16667H16.5C17.0042 4.16667 17.4359 4.34633 17.7952 4.70567C18.1546 5.065 18.3339 5.49644 18.3333 6V8.42917L20.0979 10.2167C20.4493 10.5681 20.625 10.9958 20.625 11.5C20.625 12.0042 20.4493 12.4319 20.0979 12.7833L18.3333 14.5708V17C18.3333 17.5042 18.1537 17.9359 17.7943 18.2952C17.435 18.6546 17.0036 18.8339 16.5 18.8333H14.0708ZM11 19.2917L13.2917 17H16.5V13.7917L18.7917 11.5L16.5 9.20833V6H13.2917L11 3.70833L8.70833 6H5.5V9.20833L3.20833 11.5L5.5 13.7917V17H8.70833L11 19.2917ZM11 13.7688L12.7417 14.8229C12.9097 14.9299 13.0778 14.9259 13.2458 14.811C13.4139 14.6961 13.475 14.5397 13.4292 14.3417L12.9708 12.3479L14.5292 10.9958C14.6819 10.8583 14.7278 10.6943 14.6667 10.5036C14.6056 10.3129 14.4681 10.2096 14.2542 10.1938L12.2146 10.0333L11.4125 8.15417C11.3361 7.97083 11.1986 7.87917 11 7.87917C10.8014 7.87917 10.6639 7.97083 10.5875 8.15417L9.78542 10.0333L7.74583 10.1938C7.53194 10.209 7.39444 10.3123 7.33333 10.5036C7.27222 10.6949 7.31806 10.8589 7.47083 10.9958L9.02917 12.3479L8.57083 14.3417C8.525 14.5403 8.58611 14.697 8.75417 14.8119C8.92222 14.9268 9.09028 14.9305 9.25833 14.8229L11 13.7688Z" fill="#485972"/>
</svg>
