<svg width="22" height="23" viewBox="0 0 22 23" fill="none" xmlns="http://www.w3.org/2000/svg">
<path d="M6.18481 4.16661H9.36015C9.53434 4.16666 9.70201 4.23283 9.82929 4.35175C9.95657 4.47067 10.034 4.63346 10.0458 4.80725C10.0577 4.98103 10.0032 5.15284 9.89325 5.28796C9.78333 5.42309 9.62621 5.51145 9.45365 5.53519L9.36015 5.54161H6.18481C5.66235 5.54153 5.15932 5.73973 4.77734 6.09619C4.39535 6.45265 4.16289 6.9408 4.1269 7.46202L4.12231 7.60411V16.3124C4.12248 16.8349 4.32092 17.3378 4.67755 17.7196C5.03418 18.1014 5.52242 18.3337 6.04365 18.3694L6.18481 18.3749H14.8931C15.4159 18.3752 15.9193 18.177 16.3015 17.8203C16.6837 17.4637 16.9162 16.9752 16.952 16.4536L16.9566 16.3124V15.8559C16.9566 15.6818 17.0228 15.5141 17.1417 15.3868C17.2606 15.2595 17.4234 15.1821 17.5972 15.1702C17.771 15.1584 17.9428 15.2129 18.0779 15.3228C18.213 15.4328 18.3014 15.5899 18.3251 15.7624L18.3316 15.8559V16.3124C18.3314 17.1924 17.9938 18.0388 17.3882 18.6773C16.7826 19.3158 15.9552 19.6977 15.0765 19.7444L14.8931 19.7499H6.18481C5.30467 19.75 4.45802 19.4125 3.81934 18.8069C3.18066 18.2013 2.7986 17.3738 2.7519 16.4949L2.74731 16.3115V7.60319C2.74747 6.72335 3.08499 5.87706 3.69037 5.2386C4.29575 4.60014 5.12289 4.21811 6.00148 4.17119L6.18481 4.16661ZM13.2926 6.47661V3.93744C13.2926 3.81098 13.3274 3.68695 13.3932 3.57899C13.4591 3.47104 13.5534 3.38333 13.6659 3.32553C13.7784 3.26773 13.9046 3.24207 14.0307 3.25138C14.1569 3.26068 14.278 3.30459 14.3807 3.37827L14.4559 3.44061L19.9513 8.71144C20.208 8.95802 20.2309 9.35311 20.021 9.62627L19.9513 9.70419L14.4559 14.9769C14.3647 15.0645 14.251 15.1252 14.1274 15.1524C14.0039 15.1796 13.8752 15.1722 13.7556 15.131C13.636 15.0898 13.5301 15.0163 13.4496 14.9188C13.369 14.8212 13.3169 14.7033 13.2991 14.5781L13.2926 14.48V11.9821L12.9782 12.0096C10.7782 12.2388 8.6699 13.2297 6.63948 14.9979C6.16281 15.4132 5.42765 15.0209 5.50556 14.3948C6.11515 9.51811 8.66531 6.83136 13.0186 6.49402L13.2936 6.47569L13.2926 6.47661ZM14.6676 5.54894V7.14577C14.6676 7.32811 14.5952 7.50298 14.4663 7.63191C14.3374 7.76084 14.1625 7.83327 13.9801 7.83327C10.4299 7.83327 8.22898 9.36961 7.2784 12.5605L7.20506 12.8154L7.52865 12.5981C9.57832 11.2589 11.7325 10.5833 13.9792 10.5833C14.1455 10.5833 14.3061 10.6436 14.4314 10.753C14.5566 10.8624 14.6379 11.0134 14.6603 11.1782L14.6667 11.2708V12.8685L18.4819 9.20827L14.6686 5.54894H14.6676Z" fill="#485972"/>
</svg>
