<svg width="80" height="71" viewBox="0 0 80 71" fill="none" xmlns="http://www.w3.org/2000/svg">
<g clip-path="url(#clip0_90_5633)">
<ellipse cx="42.7738" cy="35.2283" rx="29.7638" ry="30.7283" fill="#FDD32A"/>
<path d="M34.995 67.6113C49.2458 66.8786 61.4363 61.6566 71.0065 50.8638C73.7283 47.7954 75.5716 44.2219 76.2075 40.0978C76.6753 37.0679 76.2716 34.1454 75.1481 31.3221C73.2896 26.6543 70.4138 22.6293 67.1028 18.9041C62.4198 13.6343 56.8 9.52526 50.794 5.90859C50.2048 5.55392 49.597 5.22609 49.023 4.84692C48.0453 4.20176 47.7851 3.40842 48.2635 2.66176C48.708 1.96876 49.5107 1.81942 50.4591 2.33626C51.4263 2.86242 52.3643 3.44342 53.3011 4.02092C59.705 7.97359 65.6188 12.5166 70.4698 18.3313C72.83 21.1593 74.9031 24.1809 76.6111 27.4511C80.642 35.1709 80.1123 42.6458 75.3861 49.8709C72.2676 54.6391 68.0875 58.3374 63.38 61.4629C56.5071 66.0258 48.9868 68.9541 40.8073 70.0753C34.1048 70.9934 27.519 70.4789 21.1735 67.9694C13.2611 64.8404 7.66348 59.2813 4.21832 51.5509C1.34015 45.0911 0.329817 38.2964 0.791817 31.2579C1.01815 27.8069 1.58865 24.4283 2.69698 21.1441C4.45748 15.9256 7.57248 11.6883 12.07 8.54409C18.629 3.95792 25.8752 1.13459 33.9088 0.566424C37.1416 0.337758 40.3313 0.681924 43.3915 1.83809C45.3608 2.58242 47.07 3.70709 48.3685 5.39409C48.7325 5.86659 49.0918 6.35192 49.1758 6.96909C49.2645 7.61659 49.0825 8.15326 48.4758 8.47992C47.8657 8.80776 47.3232 8.65259 46.8343 8.21626C46.7328 8.12526 46.6395 8.01792 46.5672 7.90359C44.9151 5.25409 42.2855 4.26709 39.4085 3.77359C35.2587 3.06192 31.1718 3.53092 27.1456 4.63109C23.2735 5.68926 19.623 7.28292 16.1591 9.31059C9.66898 13.1104 5.75248 18.7011 4.38865 26.1013C2.87898 34.2936 3.39348 42.3063 6.72782 49.9911C11.0561 59.9684 18.8296 65.4973 29.4778 67.1691C31.299 67.4549 33.133 67.4958 34.9938 67.6113H34.995Z" fill="black"/>
<path d="M40.0478 36.0017C47.7781 35.9994 54.1913 39.0432 59.5685 44.4635C59.9535 44.852 60.3116 45.2849 60.5975 45.7492C61.0548 46.4924 60.9148 47.2705 60.321 47.722C59.7225 48.1759 58.9886 48.0872 58.3341 47.4712C58.2011 47.3464 58.095 47.1924 57.9713 47.0582C54.0163 42.7649 49.2528 39.917 43.4066 39.1564C39.8296 38.6909 36.2573 38.8099 32.8098 40.0617C30.8101 40.7874 28.9155 41.6985 27.5096 43.3809C27.4805 43.4159 27.4478 43.4497 27.414 43.48C26.7455 44.0949 26.0256 44.1824 25.4341 43.7227C24.7913 43.2234 24.691 42.4405 25.2195 41.6309C25.7526 40.813 26.4911 40.1854 27.2821 39.6277C29.451 38.0982 31.8625 37.1252 34.4443 36.5664C36.2888 36.1674 38.159 35.9889 40.0478 36.0029V36.0017Z" fill="black"/>
<path d="M48.9366 25.1469C49.7171 25.1341 50.3471 25.7233 50.3681 26.4874C50.3938 27.3741 49.534 28.2596 48.6426 28.2666C47.8761 28.2724 47.2275 27.6693 47.2018 26.9249C47.1715 26.0674 48.0558 25.1633 48.9366 25.1481V25.1469Z" fill="black"/>
<path d="M26.6941 28.8151C25.7911 28.7918 25.1098 28.1058 25.1401 27.2506C25.1681 26.4468 25.8355 25.8063 26.658 25.7958C27.5785 25.7841 28.3321 26.553 28.2785 27.4513C28.2306 28.2598 27.5598 28.8373 26.6941 28.8151Z" fill="black"/>
</g>
<defs>
<clipPath id="clip0_90_5633">
<rect width="78.631" height="70" fill="white" transform="translate(0.684448 0.5)"/>
</clipPath>
</defs>
</svg>
